<?xml version="1.0" encoding="UTF-8" standalone="no"?>
<svg
   xmlns:dc="http://purl.org/dc/elements/1.1/"
   xmlns:cc="http://creativecommons.org/ns#"
   xmlns:rdf="http://www.w3.org/1999/02/22-rdf-syntax-ns#"
   xmlns:svg="http://www.w3.org/2000/svg"
   xmlns="http://www.w3.org/2000/svg"
   xmlns:sodipodi="http://sodipodi.sourceforge.net/DTD/sodipodi-0.dtd"
   xmlns:inkscape="http://www.inkscape.org/namespaces/inkscape"
   version="1.1"
   x="0px"
   y="0px"
   viewBox="0 0 86.236038 78.676704"
   enable-background="new 0 0 100 100"
   xml:space="preserve"
   id="svg2"
   inkscape:version="0.91 r13725"
   sodipodi:docname="logo_pasty_pi.svg"
   width="86.236038"
   height="78.676704"><metadata
     id="metadata12"><rdf:RDF><cc:Work
         rdf:about=""><dc:format>image/svg+xml</dc:format><dc:type
           rdf:resource="http://purl.org/dc/dcmitype/StillImage" /><dc:title /></cc:Work></rdf:RDF></metadata><defs
     id="defs10" /><sodipodi:namedview
     pagecolor="#ffffff"
     bordercolor="#666666"
     borderopacity="1"
     objecttolerance="10"
     gridtolerance="10"
     guidetolerance="10"
     inkscape:pageopacity="0"
     inkscape:pageshadow="2"
     inkscape:window-width="1274"
     inkscape:window-height="777"
     id="namedview8"
     showgrid="false"
     inkscape:zoom="1"
     inkscape:cx="-186.18944"
     inkscape:cy="36.830833"
     inkscape:window-x="0"
     inkscape:window-y="17"
     inkscape:window-maximized="0"
     inkscape:current-layer="g4144"
     showguides="true"
     inkscape:guide-bbox="true"
     inkscape:snap-bbox="true"
     inkscape:bbox-nodes="true"
     inkscape:snap-bbox-edge-midpoints="true"
     inkscape:object-paths="true"
     fit-margin-top="0"
     fit-margin-left="0"
     fit-margin-right="0"
     fit-margin-bottom="0"><sodipodi:guide
       position="-1.6693439,-5.4740363"
       orientation="0,1"
       id="guide4878" /></sodipodi:namedview><g
     id="g4"
     transform="translate(-2.1993375,-15.484255)" /><g
     style="display:inline"
     inkscape:label="pasty pi"
     id="g4144"
     inkscape:groupmode="layer"
     transform="translate(-2.1993375,-15.484255)"><path
       d="m 68.193183,27.614272 c -1.183003,-0.866999 -2.344366,-1.648216 -3.469777,-2.249432 -1.150379,-0.5725 -2.223023,-1.012169 -3.16377,-1.299099 -0.16401,-0.04183 -0.317981,-0.0745 -0.473764,-0.10737 -0.100973,-0.114404 -0.198327,-0.228623 -0.310874,-0.344454 -1.367238,-1.427125 -3.569658,-3.04476 -6.346013,-4.164097 -1.361498,-0.609253 -2.764297,-0.955347 -4.02966,-1.23445 -1.280358,-0.238789 -2.469107,-0.302857 -3.462583,-0.288365 -0.168073,0.01211 -0.32277,0.03209 -0.481113,0.04798 -0.136299,-0.07731 -0.269825,-0.15605 -0.419039,-0.228191 -1.770084,-0.960148 -4.466763,-1.658869 -7.497067,-1.754596 -3.036018,-0.09004 -5.750617,0.604149 -7.56935,1.428192 -0.149693,0.07468 -0.284534,0.147691 -0.42204,0.223006 -0.157656,-0.0191 -0.312125,-0.04091 -0.479531,-0.0524 -2.004895,-0.198208 -4.761521,0.164634 -7.568593,1.230514 -2.640017,0.993347 -4.792246,2.416385 -6.20536,3.752692 -0.513135,0.276776 -1.008318,0.561032 -1.495866,0.848913 -1.853521,0.558309 -4.115667,1.703103 -6.2671861,3.419383 -2.3236943,1.84573 -4.0553745,3.955811 -4.9758226,5.74168 C 2.9360182,33.767435 2.679791,34.786016 2.7642766,35.48521 1.7270641,43.72503 13.61447,59.847284 31.873103,74.109995 c 18.257844,14.262094 36.778118,21.891554 44.523938,18.890887 0.698849,-0.08729 1.6239,-0.580945 2.621926,-1.468718 1.509919,-1.325404 3.140009,-3.51732 4.367508,-6.219336 1.140409,-2.494686 1.704733,-4.957326 1.800086,-6.889026 0.162963,-0.546505 0.316882,-1.105747 0.461916,-1.676409 0.954464,-1.694581 1.814144,-4.127291 2.138831,-6.929255 0.354621,-2.981611 0.03813,-5.742541 -0.639546,-7.639815 -0.05168,-0.159645 -0.110229,-0.304242 -0.166926,-0.452583 0.03978,-0.151649 0.07919,-0.301694 0.115404,-0.465012 0.35924,-1.964123 0.374071,-4.767233 -0.448268,-7.691145 -0.826477,-2.916993 -2.157524,-5.360775 -3.517009,-6.846559 -0.106121,-0.127307 -0.212868,-0.238711 -0.321647,-0.352868 -0.02212,-0.156864 -0.04217,-0.310879 -0.07112,-0.476879 -0.226445,-0.967434 -0.577928,-2.106515 -1.119572,-3.29098 -0.577129,-1.160158 -1.248996,-2.437167 -2.170517,-3.61129 -1.758949,-2.423409 -3.862672,-4.165768 -5.577721,-5.147636 -0.139633,-0.08116 -0.275562,-0.149165 -0.411005,-0.219443 -0.07039,-0.143811 -0.135839,-0.28501 -0.216128,-0.434015 -0.506136,-0.843303 -1.193601,-1.776064 -2.027565,-2.753629 -0.857184,-0.946216 -1.89491,-1.884085 -3.022508,-2.822009 z m -5.361723,7.028875 c 1.279822,1.121549 2.561572,2.243474 3.837454,3.361945 1.240727,1.278812 2.461712,2.613482 3.667224,3.913006 1.046905,1.400229 2.123516,2.762656 3.061601,4.193353 0.432155,0.73983 0.864187,1.474943 1.290923,2.205464 0.423141,0.73025 0.870197,1.439428 1.186071,2.212781 0.661347,1.526682 1.458534,2.963404 1.88478,4.513274 0.249161,0.758039 0.4941,1.50816 0.738385,2.2497 0.221999,0.745703 0.363205,1.506454 0.542773,2.243123 0.155263,0.741792 0.36599,1.45781 0.467691,2.186949 0.09872,0.728078 0.195017,1.447384 0.290978,2.153005 0.229305,1.402373 0.184778,2.785684 0.267725,4.092766 0.03646,1.311368 -0.06452,2.570384 -0.105865,3.758802 -0.147728,1.186527 -0.271926,2.310186 -0.444881,3.355191 -0.233461,1.039616 -0.369203,2.018124 -0.644513,2.896886 -0.28644,0.875144 -0.468252,1.691525 -0.774504,2.393846 -0.515549,1.428351 -1.116499,2.471032 -1.530686,3.158831 -0.488904,0.642122 -0.748764,0.983923 -0.748764,0.983924 0,0 0.187162,-0.379534 0.543432,-1.092273 0.294749,-0.737954 0.664235,-1.834668 0.969578,-3.27495 0.316031,-1.43447 0.522942,-3.211913 0.662788,-5.239558 0.04239,-1.017563 0.02782,-2.101587 0.03231,-3.236317 C 77.925464,70.536103 77.92955,69.340986 77.770147,68.107418 77.57065,66.878063 77.494521,65.585251 77.149309,64.289021 77.010872,63.637777 76.870944,62.974404 76.72694,62.301046 76.586702,61.629363 76.340775,60.972113 76.149069,60.293218 75.93402,59.621466 75.760605,58.92781 75.505833,58.251676 75.232717,57.582784 74.955842,56.9036 74.677232,56.218996 74.175838,54.828682 73.412541,53.519827 72.742363,52.147402 72.427208,51.449479 71.98256,50.814352 71.565925,50.160244 71.147271,49.507096 70.726168,48.849063 70.302096,48.186607 69.872925,47.529053 69.331469,46.942423 68.849972,46.311245 68.363032,45.682162 67.876163,45.050853 67.385726,44.416499 66.295472,43.27807 65.196205,42.131788 64.092824,40.979298 62.802784,39.878951 61.506356,38.772723 60.211414,37.66728 58.905231,36.73705 57.599871,35.806116 56.298243,34.878177 54.888648,34.068966 53.48357,33.262593 52.088625,32.462233 51.355029,32.139162 50.62348,31.816289 49.89663,31.495954 49.166874,31.180965 48.466201,30.799782 47.72431,30.542563 46.979684,30.292092 46.238492,30.0422 45.503423,29.794118 44.767909,29.548226 44.04232,29.267955 43.289035,29.132536 c -1.493671,-0.316593 -2.948271,-0.745263 -4.419226,-0.894378 -0.732476,-0.105205 -1.454003,-0.207191 -2.169732,-0.309466 -0.718315,-0.08272 -1.434656,-0.08289 -2.139276,-0.129536 -0.704322,-0.02104 -1.40173,-0.101939 -2.087999,-0.07461 -0.686787,0.02312 -1.365254,0.04599 -2.031428,0.06871 -1.341245,-0.02114 -2.613696,0.220706 -3.854779,0.324755 -1.237041,0.142734 -2.393253,0.43787 -3.521348,0.614951 -1.098488,0.278882 -2.155648,0.529476 -3.131894,0.81756 -1.934708,0.628128 -3.607341,1.256814 -4.923252,1.911499 -1.326869,0.652469 -2.285723,1.254778 -2.941083,1.724999 -0.605047,0.526019 -0.929284,0.805735 -0.929284,0.805735 0,0 0.268488,-0.331552 0.771997,-0.953384 0.557935,-0.561551 1.439122,-1.41935 2.696042,-2.258428 0.606503,-0.46778 1.356126,-0.840615 2.136682,-1.329781 0.785531,-0.477667 1.702516,-0.848446 2.65469,-1.32664 0.972051,-0.420792 2.030401,-0.810989 3.146488,-1.242355 1.142885,-0.32922 2.340967,-0.729963 3.621366,-1.012673 1.288282,-0.235946 2.621205,-0.612828 4.037376,-0.72984 0.707076,-0.07833 1.425391,-0.160033 2.156327,-0.241296 0.731454,-0.07705 1.479759,-0.04767 2.237861,-0.07599 0.756823,-0.0039 1.528543,-0.05035 2.306596,-0.01486 0.777045,0.05627 1.564974,0.112974 2.359995,0.170598 1.60713,0.03977 3.193789,0.462586 4.834103,0.73765 0.826817,0.119261 1.623715,0.380585 2.435296,0.613568 0.811483,0.237982 1.627945,0.479336 2.451175,0.720149 1.613391,0.566193 3.200178,1.275513 4.812198,1.9523 1.525548,0.842716 3.075987,1.676513 4.60417,2.558094 1.473152,1.025127 2.950698,2.053844 4.429366,3.08328 z M 46.938041,51.616731 c 0.08571,0.06276 0.116199,0.167881 0.174368,0.252691 0.236829,0.08578 0.213271,0.205439 0.279079,0.312182 0.239598,0.117189 0.227793,0.260034 0.248497,0.436995 l 0.117842,0.0871 c 0.167361,0.425018 0.03042,0.917613 -0.06443,1.151691 0.204095,-0.148681 0.648856,-0.400821 1.101837,-0.341318 l 0.111496,0.09205 c 0.176589,-0.02285 0.31399,-0.06759 0.485694,0.136518 0.119498,0.03801 0.22848,-0.01493 0.368918,0.194 0.14682,0.05471 0.326976,0.03769 0.38672,0.282255 0.170688,0.05187 0.311536,0.134555 0.344829,0.326367 0.193395,0.114427 0.21382,0.205063 0.214196,0.293715 0.03927,0.02937 0.320044,0.185378 0.301069,0.445843 0.314785,0.190979 0.24547,0.466137 -0.0058,0.575387 -0.0124,0.13695 -0.02033,0.274727 -0.293471,0.340786 -0.02687,0.134715 -0.140471,0.216244 -0.354267,0.253639 -0.07591,0.159547 -0.209661,0.209063 -0.374712,0.200492 -0.125384,0.201571 -0.400509,0.160436 -0.487504,0.154519 -0.106493,0.09131 -0.230952,0.157281 -0.492753,0.04385 -0.16206,0.133497 -0.316393,0.0601 -0.469525,-0.0049 0.228478,0.570367 0.338346,1.170636 -0.277494,1.954303 l -0.0238,0.157377 c 0.251986,0.666834 -0.04902,1.94329 -1.319987,2.178405 -0.23056,0.204242 -0.438323,0.316167 -0.65241,0.454462 -0.695787,0.687657 -1.618716,0.543501 -1.821363,0.453383 -0.396349,-0.0048 -0.801941,-0.03095 -1.258331,-0.184902 -0.609623,0.08447 -1.078773,-0.06917 -1.4464,-0.356599 -0.0054,-0.0042 -0.0099,-0.0078 -0.0154,-0.01201 -0.367925,-0.28705 -0.63053,-0.705132 -0.696146,-1.31705 -0.25987,-0.405558 -0.383386,-0.79275 -0.484026,-1.176138 -0.136495,-0.174807 -0.499793,-1.035381 -0.001,-1.876945 0.08235,-0.2412 0.140655,-0.469872 0.283005,-0.743022 -0.07962,-1.290028 1.086071,-1.891131 1.794056,-1.808087 l 0.14693,-0.06119 c 0.611171,-0.787417 1.218791,-0.82722 1.827454,-0.743554 -0.100164,-0.132839 -0.208386,-0.262074 -0.118107,-0.451625 -0.173446,-0.226545 -0.138354,-0.364795 -0.07554,-0.49025 -0.02679,-0.08298 -0.133343,-0.339981 0.0319,-0.51041 -0.0483,-0.158072 -0.03261,-0.299802 0.103815,-0.412102 -0.01548,-0.216488 0.03613,-0.34646 0.160328,-0.405135 -0.0019,-0.281046 0.129641,-0.322126 0.259601,-0.367242 0.04509,-0.270335 0.295457,-0.404026 0.55686,-0.144952 0.248159,-0.08144 0.467513,0.153266 0.505466,0.184179 0.08611,-0.0211 0.179016,-0.02324 0.336831,0.136723 0.19416,-0.01413 0.308484,0.102516 0.400135,0.255567 0.08655,-4.24e-4 0.146627,0.02016 0.191577,0.05299 z"
       id="path4146"
       style="fill:none;fill-opacity:1;stroke:#0099da;stroke-width:1;stroke-miterlimit:4;stroke-dasharray:none;stroke-opacity:1"
       inkscape:connector-curvature="0"
       inkscape:export-xdpi="180.73964"
       inkscape:export-ydpi="180.73964" /></g></svg>