<?xml version="1.0" encoding="UTF-8" standalone="no"?>
<svg
   xmlns:dc="http://purl.org/dc/elements/1.1/"
   xmlns:cc="http://creativecommons.org/ns#"
   xmlns:rdf="http://www.w3.org/1999/02/22-rdf-syntax-ns#"
   xmlns:svg="http://www.w3.org/2000/svg"
   xmlns="http://www.w3.org/2000/svg"
   xmlns:sodipodi="http://sodipodi.sourceforge.net/DTD/sodipodi-0.dtd"
   xmlns:inkscape="http://www.inkscape.org/namespaces/inkscape"
   version="1.1"
   x="0px"
   y="0px"
   viewBox="0 0 100 100"
   enable-background="new 0 0 100 100"
   xml:space="preserve"
   id="svg2"
   inkscape:version="0.91 r13725"
   sodipodi:docname="logo.svg"><metadata
     id="metadata12"><rdf:RDF><cc:Work
         rdf:about=""><dc:format>image/svg+xml</dc:format><dc:type
           rdf:resource="http://purl.org/dc/dcmitype/StillImage" /></cc:Work></rdf:RDF></metadata><defs
     id="defs10" /><sodipodi:namedview
     pagecolor="#ffffff"
     bordercolor="#666666"
     borderopacity="1"
     objecttolerance="10"
     gridtolerance="10"
     guidetolerance="10"
     inkscape:pageopacity="0"
     inkscape:pageshadow="2"
     inkscape:window-width="1274"
     inkscape:window-height="777"
     id="namedview8"
     showgrid="false"
     inkscape:zoom="1"
     inkscape:cx="49.009897"
     inkscape:cy="42.669869"
     inkscape:window-x="0"
     inkscape:window-y="17"
     inkscape:window-maximized="0"
     inkscape:current-layer="g4144"
     showguides="true"
     inkscape:guide-bbox="true"
     inkscape:snap-bbox="true"
     inkscape:bbox-nodes="true"
     inkscape:snap-bbox-edge-midpoints="true"
     inkscape:object-paths="true"><sodipodi:guide
       position="52.999481,47.499749"
       orientation="0,1"
       id="guide4876" /><sodipodi:guide
       position="52.99936,36.5"
       orientation="0,1"
       id="guide4878" /></sodipodi:namedview><g
     id="g4" /><g
     inkscape:groupmode="layer"
     id="layer1"
     inkscape:label="pasty body"
     style="display:none"
     sodipodi:insensitive="true"><path
       inkscape:connector-curvature="0"
       d="m 97.49136,56.618 c -0.637,-2.668 -1.708,-4.957 -2.822,-6.538 -0.208,-0.531 -0.43,-1.066 -0.667,-1.605 -0.291,-1.923 -1.111,-4.369 -2.58,-6.777 -1.556,-2.568 -3.506,-4.55 -5.208,-5.628 -0.139,-0.094 -0.274,-0.172 -0.41,-0.254 -0.062,-0.144 -0.123,-0.286 -0.195,-0.437 -0.926,-1.769 -2.639,-3.987 -5.087,-5.785 -2.447,-1.79 -5.001,-2.897 -6.987,-3.231 -0.162,-0.035 -0.315,-0.056 -0.471,-0.079 -0.114,-0.11 -0.225,-0.22 -0.35,-0.333 -0.774,-0.623 -1.751,-1.305 -2.907,-1.905 -1.169,-0.559 -2.485,-1.15 -3.934,-1.508 -2.878,-0.827 -5.609,-0.906 -7.565,-0.624 -0.16,0.022 -0.308,0.052 -0.458,0.08 -0.144,-0.07 -0.283,-0.14 -0.438,-0.208 -0.918,-0.353 -2.035,-0.666 -3.294,-0.923 -1.258,-0.218 -2.653,-0.318 -4.119,-0.363 -1.466,0.045 -2.861,0.145 -4.118,0.364 -1.259,0.257 -2.376,0.57 -3.294,0.923 -0.155,0.068 -0.295,0.138 -0.438,0.208 -0.15,-0.028 -0.298,-0.058 -0.458,-0.08 -1.956,-0.283 -4.688,-0.203 -7.565,0.624 -1.448,0.358 -2.765,0.949 -3.934,1.508 -1.156,0.6 -2.133,1.282 -2.907,1.905 -0.125,0.113 -0.235,0.223 -0.35,0.333 -0.155,0.023 -0.309,0.044 -0.471,0.079 -1.986,0.333 -4.54,1.441 -6.987,3.231 -2.448,1.798 -4.161,4.016 -5.087,5.785 -0.072,0.151 -0.133,0.293 -0.195,0.437 -0.136,0.082 -0.271,0.16 -0.41,0.254 -1.702,1.078 -3.652,3.06 -5.2080004,5.628 -1.469,2.408 -2.2889996,4.854 -2.5799996,6.777 -0.234,0.534 -0.449,1.063 -0.656,1.59 -1.117,1.581 -2.194,3.876 -2.833,6.553 -0.695,2.885 -0.762,5.615 -0.388,7.589 0.24,1.314 0.666,2.273 1.163,2.772 4.2549996,7.132 23.547,12.52 46.716,12.52 23.168,0 42.46,-5.388 46.717,-12.521 0.497,-0.499 0.923,-1.458 1.163,-2.772 0.374,-1.974 0.308,-4.704 -0.388,-7.589 z m -49.918,5.163 c -0.237,1.031 -0.574,1.719 -0.574,1.719 0,0 -0.337,-0.688 -0.574,-1.719 -0.267,-1.031 -0.424,-2.406 -0.426,-3.781 0.004,-1.375 0.163,-2.75 0.429,-3.781 0.237,-1.031 0.571,-1.719 0.571,-1.719 0,0 0.334,0.688 0.571,1.719 0.266,1.031 0.425,2.406 0.429,3.781 -0.002,1.375 -0.159,2.75 -0.426,3.781 z m 6,0 c -0.237,1.031 -0.574,1.719 -0.574,1.719 0,0 -0.337,-0.688 -0.574,-1.719 -0.267,-1.031 -0.424,-2.406 -0.426,-3.781 0.004,-1.375 0.163,-2.75 0.429,-3.781 0.237,-1.031 0.571,-1.719 0.571,-1.719 0,0 0.334,0.688 0.571,1.719 0.266,1.031 0.425,2.406 0.429,3.781 -0.002,1.375 -0.159,2.75 -0.426,3.781 z m 37.219,-2.328 c -0.222,-0.763 -0.606,-1.855 -1.252,-3.178 -0.634,-1.325 -1.565,-2.852 -2.703,-4.536 -0.593,-0.828 -1.272,-1.674 -1.967,-2.571 -0.779,-0.834 -1.511,-1.778 -2.396,-2.652 -0.914,-0.846 -1.769,-1.819 -2.839,-2.628 -0.51,-0.428 -1.029,-0.863 -1.557,-1.305 -0.524,-0.443 -1.123,-0.81 -1.692,-1.227 -0.583,-0.397 -1.147,-0.838 -1.764,-1.214 -0.627,-0.359 -1.262,-0.723 -1.903,-1.091 -1.251,-0.787 -2.658,-1.348 -4.031,-2.017 -0.678,-0.356 -1.42,-0.583 -2.151,-0.842 -0.732,-0.257 -1.469,-0.516 -2.211,-0.777 -0.743,-0.254 -1.531,-0.384 -2.299,-0.585 -0.771,-0.196 -1.544,-0.394 -2.321,-0.592 -1.56,-0.226 -3.132,-0.453 -4.711,-0.682 -1.694,-0.073 -3.396,-0.147 -5.097,-0.221 -1.602,0.071 -3.204,0.142 -4.801,0.212 -1.609,0.23 -3.213,0.46 -4.805,0.688 -0.777,0.197 -1.551,0.393 -2.321,0.588 -0.769,0.201 -1.557,0.331 -2.3,0.585 -0.741,0.261 -1.479,0.52 -2.211,0.777 -0.731,0.259 -1.474,0.486 -2.151,0.843 -1.372,0.67 -2.782,1.227 -4.033,2.015 -0.642,0.368 -1.275,0.731 -1.902,1.091 -0.617,0.377 -1.181,0.818 -1.765,1.215 -0.568,0.417 -1.168,0.784 -1.692,1.228 -0.527,0.441 -1.047,0.876 -1.558,1.304 -1.07,0.809 -1.924,1.783 -2.838,2.629 -0.887,0.874 -1.616,1.819 -2.396,2.653 -0.694,0.896 -1.374,1.744 -1.966,2.572 -1.138,1.686 -2.069,3.211 -2.703,4.537 -0.6440004,1.331 -1.0290004,2.396 -1.2560004,3.17 -0.153,0.787 -0.235,1.207 -0.235,1.207 0,0 0.007,-0.427 0.021,-1.227 0.094,-0.786 0.261,-2.005 0.735,-3.44 0.19,-0.742 0.5500004,-1.496 0.8640004,-2.362 0.325,-0.86 0.819,-1.717 1.275,-2.68 0.507,-0.93 1.102,-1.89 1.716,-2.917 0.698,-0.963 1.396,-2.016 2.231,-3.027 0.87,-0.979 1.687,-2.097 2.731,-3.061 0.509,-0.497 1.026,-1.003 1.552,-1.517 0.529,-0.511 1.137,-0.948 1.717,-1.437 0.594,-0.469 1.172,-0.982 1.807,-1.433 0.647,-0.434 1.304,-0.873 1.966,-1.317 1.291,-0.958 2.801,-1.603 4.263,-2.396 0.725,-0.415 1.515,-0.698 2.298,-1.014 0.786,-0.312 1.577,-0.626 2.374,-0.943 1.62,-0.547 3.307,-0.964 4.994,-1.423 1.721,-0.275 3.456,-0.573 5.203,-0.819 1.792,-0.099 3.591,-0.197 5.39,-0.296 1.699,0.096 3.399,0.191 5.093,0.287 1.765,0.244 3.548,0.545 5.298,0.827 1.687,0.459 3.375,0.869 4.995,1.419 0.796,0.317 1.588,0.631 2.374,0.944 0.783,0.315 1.573,0.599 2.298,1.014 1.461,0.796 2.974,1.437 4.264,2.396 0.663,0.444 1.318,0.883 1.967,1.317 0.634,0.451 1.212,0.964 1.807,1.434 0.579,0.489 1.187,0.925 1.716,1.437 0.526,0.513 1.044,1.019 1.554,1.516 1.044,0.964 1.86,2.083 2.73,3.062 0.836,1.011 1.532,2.065 2.231,3.027 0.614,1.026 1.208,1.987 1.715,2.917 0.456,0.963 0.951,1.819 1.275,2.681 0.313,0.866 0.673,1.62 0.864,2.362 0.473,1.443 0.641,2.635 0.738,3.432 0.01,0.807 0.015,1.236 0.015,1.236 0,0 -0.086,-0.414 -0.244,-1.195 z"
       id="path6" /></g><g
     style="display:inline"
     inkscape:label="pasty pi"
     id="g4144"
     inkscape:groupmode="layer"><path
       d="m 68.193183,27.614272 c -1.183003,-0.866999 -2.344366,-1.648216 -3.469777,-2.249432 -1.150379,-0.5725 -2.223023,-1.012169 -3.16377,-1.299099 -0.16401,-0.04183 -0.317981,-0.0745 -0.473764,-0.10737 -0.100973,-0.114404 -0.198327,-0.228623 -0.310874,-0.344454 -1.367238,-1.427125 -3.569658,-3.04476 -6.346013,-4.164097 -1.361498,-0.609253 -2.764297,-0.955347 -4.02966,-1.23445 -1.280358,-0.238789 -2.469107,-0.302857 -3.462583,-0.288365 -0.168073,0.01211 -0.32277,0.03209 -0.481113,0.04798 -0.136299,-0.07731 -0.269825,-0.15605 -0.419039,-0.228191 -1.770084,-0.960148 -4.466763,-1.658869 -7.497067,-1.754596 -3.036018,-0.09004 -5.750617,0.604149 -7.56935,1.428192 -0.149693,0.07468 -0.284534,0.147691 -0.42204,0.223006 -0.157656,-0.0191 -0.312125,-0.04091 -0.479531,-0.0524 -2.004895,-0.198208 -4.761521,0.164634 -7.568593,1.230514 -2.640017,0.993347 -4.792246,2.416385 -6.20536,3.752692 -0.513135,0.276776 -1.008318,0.561032 -1.495866,0.848913 -1.853521,0.558309 -4.115667,1.703103 -6.2671861,3.419383 C 6.2079026,28.688228 4.4762224,30.798309 3.5557743,32.584178 2.9360182,33.767435 2.679791,34.786016 2.7642766,35.48521 1.7270641,43.72503 13.61447,59.847284 31.873103,74.109995 c 18.257844,14.262094 36.778118,21.891554 44.523938,18.890887 0.698849,-0.08729 1.6239,-0.580945 2.621926,-1.468718 1.509919,-1.325404 3.140009,-3.51732 4.367508,-6.219336 1.140409,-2.494686 1.704733,-4.957326 1.800086,-6.889026 0.162963,-0.546505 0.316882,-1.105747 0.461916,-1.676409 0.954464,-1.694581 1.814144,-4.127291 2.138831,-6.929255 0.354621,-2.981611 0.03813,-5.742541 -0.639546,-7.639815 -0.05168,-0.159645 -0.110229,-0.304242 -0.166926,-0.452583 0.03978,-0.151649 0.07919,-0.301694 0.115404,-0.465012 0.35924,-1.964123 0.374071,-4.767233 -0.448268,-7.691145 -0.826477,-2.916993 -2.157524,-5.360775 -3.517009,-6.846559 -0.106121,-0.127307 -0.212868,-0.238711 -0.321647,-0.352868 -0.02212,-0.156864 -0.04217,-0.310879 -0.07112,-0.476879 -0.226445,-0.967434 -0.577928,-2.106515 -1.119572,-3.29098 -0.577129,-1.160158 -1.248996,-2.437167 -2.170517,-3.61129 -1.758949,-2.423409 -3.862672,-4.165768 -5.577721,-5.147636 -0.139633,-0.08116 -0.275562,-0.149165 -0.411005,-0.219443 -0.07039,-0.143811 -0.135839,-0.28501 -0.216128,-0.434015 -0.506136,-0.843303 -1.193601,-1.776064 -2.027565,-2.753629 -0.857184,-0.946216 -1.89491,-1.884085 -3.022508,-2.822009 z m -5.361723,7.028875 c 1.279822,1.121549 2.561572,2.243474 3.837454,3.361945 1.240727,1.278812 2.461712,2.613482 3.667224,3.913006 1.046905,1.400229 2.123516,2.762656 3.061601,4.193353 0.432155,0.73983 0.864187,1.474943 1.290923,2.205464 0.423141,0.73025 0.870197,1.439428 1.186071,2.212781 0.661347,1.526682 1.458534,2.963404 1.88478,4.513274 0.249161,0.758039 0.4941,1.50816 0.738385,2.2497 0.221999,0.745703 0.363205,1.506454 0.542773,2.243123 0.155263,0.741792 0.36599,1.45781 0.467691,2.186949 0.09872,0.728078 0.195017,1.447384 0.290978,2.153005 0.229305,1.402373 0.184778,2.785684 0.267725,4.092766 0.03646,1.311368 -0.06452,2.570384 -0.105865,3.758802 -0.147728,1.186527 -0.271926,2.310186 -0.444881,3.355191 -0.233461,1.039616 -0.369203,2.018124 -0.644513,2.896886 -0.28644,0.875144 -0.468252,1.691525 -0.774504,2.393846 -0.515549,1.428351 -1.116499,2.471032 -1.530686,3.158831 -0.488904,0.642122 -0.748764,0.983923 -0.748764,0.983924 0,0 0.187162,-0.379534 0.543432,-1.092273 0.294749,-0.737954 0.664235,-1.834668 0.969578,-3.27495 0.316031,-1.43447 0.522942,-3.211913 0.662788,-5.239558 0.04239,-1.017563 0.02782,-2.101587 0.03231,-3.236317 -0.100496,-1.136792 -0.09641,-2.331909 -0.255813,-3.565477 C 77.57065,66.878063 77.494521,65.585251 77.149309,64.289021 77.010872,63.637777 76.870944,62.974404 76.72694,62.301046 76.586702,61.629363 76.340775,60.972113 76.149069,60.293218 75.93402,59.621466 75.760605,58.92781 75.505833,58.251676 75.232717,57.582784 74.955842,56.9036 74.677232,56.218996 74.175838,54.828682 73.412541,53.519827 72.742363,52.147402 72.427208,51.449479 71.98256,50.814352 71.565925,50.160244 71.147271,49.507096 70.726168,48.849063 70.302096,48.186607 69.872925,47.529053 69.331469,46.942423 68.849972,46.311245 68.363032,45.682162 67.876163,45.050853 67.385726,44.416499 66.295472,43.27807 65.196205,42.131788 64.092824,40.979298 62.802784,39.878951 61.506356,38.772723 60.211414,37.66728 58.905231,36.73705 57.599871,35.806116 56.298243,34.878177 54.888648,34.068966 53.48357,33.262593 52.088625,32.462233 51.355029,32.139162 50.62348,31.816289 49.89663,31.495954 49.166874,31.180965 48.466201,30.799782 47.72431,30.542563 46.979684,30.292092 46.238492,30.0422 45.503423,29.794118 44.767909,29.548226 44.04232,29.267955 43.289035,29.132536 c -1.493671,-0.316593 -2.948271,-0.745263 -4.419226,-0.894378 -0.732476,-0.105205 -1.454003,-0.207191 -2.169732,-0.309466 -0.718315,-0.08272 -1.434656,-0.08289 -2.139276,-0.129536 -0.704322,-0.02104 -1.40173,-0.101939 -2.087999,-0.07461 -0.686787,0.02312 -1.365254,0.04599 -2.031428,0.06871 -1.341245,-0.02114 -2.613696,0.220706 -3.854779,0.324755 -1.237041,0.142734 -2.393253,0.43787 -3.521348,0.614951 -1.098488,0.278882 -2.155648,0.529476 -3.131894,0.81756 -1.934708,0.628128 -3.607341,1.256814 -4.923252,1.911499 -1.326869,0.652469 -2.285723,1.254778 -2.941083,1.724999 -0.605047,0.526019 -0.929284,0.805735 -0.929284,0.805735 0,0 0.268488,-0.331552 0.771997,-0.953384 0.557935,-0.561551 1.439122,-1.41935 2.696042,-2.258428 0.606503,-0.46778 1.356126,-0.840615 2.136682,-1.329781 0.785531,-0.477667 1.702516,-0.848446 2.65469,-1.32664 0.972051,-0.420792 2.030401,-0.810989 3.146488,-1.242355 1.142885,-0.32922 2.340967,-0.729963 3.621366,-1.012673 1.288282,-0.235946 2.621205,-0.612828 4.037376,-0.72984 0.707076,-0.07833 1.425391,-0.160033 2.156327,-0.241296 0.731454,-0.07705 1.479759,-0.04767 2.237861,-0.07599 0.756823,-0.0039 1.528543,-0.05035 2.306596,-0.01486 0.777045,0.05627 1.564974,0.112974 2.359995,0.170598 1.60713,0.03977 3.193789,0.462586 4.834103,0.73765 0.826817,0.119261 1.623715,0.380585 2.435296,0.613568 0.811483,0.237982 1.627945,0.479336 2.451175,0.720149 1.613391,0.566193 3.200178,1.275513 4.812198,1.9523 1.525548,0.842716 3.075987,1.676513 4.60417,2.558094 1.473152,1.025127 2.950698,2.053844 4.429366,3.08328 z M 46.938041,51.616731 c 0.08571,0.06276 0.116199,0.167881 0.174368,0.252691 0.236829,0.08578 0.213271,0.205439 0.279079,0.312182 0.239598,0.117189 0.227793,0.260034 0.248497,0.436995 l 0.117842,0.0871 c 0.167361,0.425018 0.03042,0.917613 -0.06443,1.151691 0.204095,-0.148681 0.648856,-0.400821 1.101837,-0.341318 l 0.111496,0.09205 c 0.176589,-0.02285 0.31399,-0.06759 0.485694,0.136518 0.119498,0.03801 0.22848,-0.01493 0.368918,0.194 0.14682,0.05471 0.326976,0.03769 0.38672,0.282255 0.170688,0.05187 0.311536,0.134555 0.344829,0.326367 0.193395,0.114427 0.21382,0.205063 0.214196,0.293715 0.03927,0.02937 0.320044,0.185378 0.301069,0.445843 0.314785,0.190979 0.24547,0.466137 -0.0058,0.575387 -0.0124,0.13695 -0.02033,0.274727 -0.293471,0.340786 -0.02687,0.134715 -0.140471,0.216244 -0.354267,0.253639 -0.07591,0.159547 -0.209661,0.209063 -0.374712,0.200492 -0.125384,0.201571 -0.400509,0.160436 -0.487504,0.154519 -0.106493,0.09131 -0.230952,0.157281 -0.492753,0.04385 -0.16206,0.133497 -0.316393,0.0601 -0.469525,-0.0049 0.228478,0.570367 0.338346,1.170636 -0.277494,1.954303 l -0.0238,0.157377 c 0.251986,0.666834 -0.04902,1.94329 -1.319987,2.178405 -0.23056,0.204242 -0.438323,0.316167 -0.65241,0.454462 -0.695787,0.687657 -1.618716,0.543501 -1.821363,0.453383 -0.396349,-0.0048 -0.801941,-0.03095 -1.258331,-0.184902 -0.609623,0.08447 -1.078773,-0.06917 -1.4464,-0.356599 -0.0054,-0.0042 -0.0099,-0.0078 -0.0154,-0.01201 -0.367925,-0.28705 -0.63053,-0.705132 -0.696146,-1.31705 -0.25987,-0.405558 -0.383386,-0.79275 -0.484026,-1.176138 -0.136495,-0.174807 -0.499793,-1.035381 -0.001,-1.876945 0.08235,-0.2412 0.140655,-0.469872 0.283005,-0.743022 -0.07962,-1.290028 1.086071,-1.891131 1.794056,-1.808087 l 0.14693,-0.06119 c 0.611171,-0.787417 1.218791,-0.82722 1.827454,-0.743554 -0.100164,-0.132839 -0.208386,-0.262074 -0.118107,-0.451625 -0.173446,-0.226545 -0.138354,-0.364795 -0.07554,-0.49025 -0.02679,-0.08298 -0.133343,-0.339981 0.0319,-0.51041 -0.0483,-0.158072 -0.03261,-0.299802 0.103815,-0.412102 -0.01548,-0.216488 0.03613,-0.34646 0.160328,-0.405135 -0.0019,-0.281046 0.129641,-0.322126 0.259601,-0.367242 0.04509,-0.270335 0.295457,-0.404026 0.55686,-0.144952 0.248159,-0.08144 0.467513,0.153266 0.505466,0.184179 0.08611,-0.0211 0.179016,-0.02324 0.336831,0.136723 0.19416,-0.01413 0.308484,0.102516 0.400135,0.255567 0.08655,-4.24e-4 0.146627,0.02016 0.191577,0.05299 z"
       id="path4146"
       style="fill:none;fill-opacity:1;stroke:#0099da;stroke-width:1;stroke-miterlimit:4;stroke-dasharray:none;stroke-opacity:1"
       inkscape:connector-curvature="0"
       inkscape:export-xdpi="180.73964"
       inkscape:export-ydpi="180.73964" /></g><g
     inkscape:groupmode="layer"
     id="layer2"
     inkscape:label="pi"
     style="display:none"
     sodipodi:insensitive="true"><path
       inkscape:connector-curvature="0"
       style="fill:#ffffff"
       d="m 48.024904,52.500421 c -0.05563,0.0018 -0.115528,0.02227 -0.183473,0.07588 -0.166443,-0.06419 -0.327814,-0.08648 -0.472125,0.04418 -0.222843,-0.02891 -0.295263,0.03074 -0.350129,0.100376 -0.04894,-0.001 -0.366068,-0.05029 -0.511499,0.166657 -0.365487,-0.04325 -0.480996,0.214977 -0.350113,0.455774 -0.07465,0.115557 -0.151988,0.229716 0.02254,0.450011 -0.06176,0.122695 -0.02348,0.255796 0.121987,0.416873 -0.03838,0.172483 0.03705,0.294173 0.172421,0.389012 -0.02531,0.236033 0.216455,0.37326 0.288643,0.422161 0.02773,0.137532 0.08549,0.267309 0.361637,0.339068 0.04554,0.204953 0.211502,0.240347 0.372212,0.283367 -0.53117,0.308756 -0.986683,0.714994 -0.983595,1.711762 l -0.0778,0.138794 c -0.60906,0.370387 -1.157028,1.560845 -0.300151,2.528456 0.05597,0.302889 0.149841,0.520448 0.23342,0.761225 0.125007,0.97024 0.940841,1.424555 1.156017,1.478287 0.315323,0.240179 0.651139,0.468083 1.105593,0.627713 0.428403,0.441838 0.892521,0.61023 1.359175,0.609953 0.0069,-5e-6 0.01381,6.9e-5 0.02068,0 0.466654,2.03e-4 0.930757,-0.1681 1.359176,-0.609953 0.454433,-0.15963 0.790269,-0.387534 1.105592,-0.627713 0.215176,-0.05373 1.031006,-0.508047 1.156012,-1.478287 0.08358,-0.240777 0.17745,-0.458336 0.23342,-0.761225 0.856868,-0.967685 0.308914,-2.158222 -0.300166,-2.528608 l -0.07792,-0.138781 c 0.0029,-0.996688 -0.452425,-1.402926 -0.983595,-1.711761 0.16071,-0.04302 0.326675,-0.0784 0.372211,-0.283368 0.276145,-0.07177 0.333932,-0.201545 0.361644,-0.339062 0.0722,-0.04889 0.31395,-0.186131 0.288636,-0.422161 0.135346,-0.09485 0.210811,-0.216546 0.172423,-0.389012 0.14546,-0.16108 0.183745,-0.294173 0.121986,-0.416876 0.174588,-0.220204 0.09713,-0.334362 0.02259,-0.449918 0.130788,-0.240796 0.01539,-0.499022 -0.350252,-0.455774 -0.145386,-0.216944 -0.46244,-0.167672 -0.511465,-0.166658 -0.05487,-0.06963 -0.127255,-0.129281 -0.350099,-0.100375 -0.144316,-0.130668 -0.305682,-0.108371 -0.472129,-0.04418 -0.197638,-0.155961 -0.328426,-0.03094 -0.477809,0.01633 -0.239291,-0.0782 -0.294004,0.02891 -0.411576,0.07252 -0.26096,-0.05515 -0.340261,0.06492 -0.465361,0.191631 l -0.145525,-0.0029 c -0.393607,0.231961 -0.589143,0.704286 -0.658455,0.947095 -0.06935,-0.242857 -0.264433,-0.715181 -0.657962,-0.947095 l -0.145524,0.0029 c -0.125252,-0.12671 -0.204555,-0.24677 -0.465514,-0.191627 -0.117571,-0.04361 -0.172131,-0.150713 -0.411571,-0.07252 -0.09805,-0.03103 -0.188224,-0.09551 -0.294404,-0.09221 z"
       id="path4228" /></g></svg>