<?xml version="1.0" encoding="UTF-8" standalone="no"?>
<svg
   xmlns:dc="http://purl.org/dc/elements/1.1/"
   xmlns:cc="http://creativecommons.org/ns#"
   xmlns:rdf="http://www.w3.org/1999/02/22-rdf-syntax-ns#"
   xmlns:svg="http://www.w3.org/2000/svg"
   xmlns="http://www.w3.org/2000/svg"
   xmlns:sodipodi="http://sodipodi.sourceforge.net/DTD/sodipodi-0.dtd"
   xmlns:inkscape="http://www.inkscape.org/namespaces/inkscape"
   version="1.1"
   x="0px"
   y="0px"
   viewBox="0 0 180 180"
   enable-background="new 0 0 100 100"
   xml:space="preserve"
   id="svg2"
   inkscape:version="0.91 r13725"
   sodipodi:docname="logo_social_media.svg"
   width="180"
   height="180"
   inkscape:export-filename="/home/ben/dev/percy/cornwall_tech_jam/website_main/resources/res/logo/ctj_twitter.png"
   inkscape:export-xdpi="200"
   inkscape:export-ydpi="200"><metadata
     id="metadata12"><rdf:RDF><cc:Work
         rdf:about=""><dc:format>image/svg+xml</dc:format><dc:type
           rdf:resource="http://purl.org/dc/dcmitype/StillImage" /><dc:title></dc:title></cc:Work></rdf:RDF></metadata><defs
     id="defs10" /><sodipodi:namedview
     pagecolor="#ffffff"
     bordercolor="#666666"
     borderopacity="1"
     objecttolerance="10"
     gridtolerance="10"
     guidetolerance="10"
     inkscape:pageopacity="0"
     inkscape:pageshadow="2"
     inkscape:window-width="1274"
     inkscape:window-height="777"
     id="namedview8"
     showgrid="false"
     inkscape:zoom="1"
     inkscape:cx="49.792957"
     inkscape:cy="37.524062"
     inkscape:window-x="0"
     inkscape:window-y="17"
     inkscape:window-maximized="0"
     inkscape:current-layer="g4163"
     showguides="true"
     inkscape:guide-bbox="true"
     inkscape:snap-bbox="true"
     inkscape:bbox-nodes="true"
     inkscape:snap-bbox-edge-midpoints="true"
     inkscape:object-paths="true"
     fit-margin-top="0"
     fit-margin-left="0"
     fit-margin-right="0"
     fit-margin-bottom="0" /><g
     id="g4"
     transform="translate(-4.5484484,87.729822)" /><g
     inkscape:groupmode="layer"
     id="layer1"
     inkscape:label="pasty body"
     style="display:none"
     sodipodi:insensitive="true"
     transform="translate(-4.5484484,87.729822)"><path
       inkscape:connector-curvature="0"
       d="m 97.49136,56.618 c -0.637,-2.668 -1.708,-4.957 -2.822,-6.538 -0.208,-0.531 -0.43,-1.066 -0.667,-1.605 -0.291,-1.923 -1.111,-4.369 -2.58,-6.777 -1.556,-2.568 -3.506,-4.55 -5.208,-5.628 -0.139,-0.094 -0.274,-0.172 -0.41,-0.254 -0.062,-0.144 -0.123,-0.286 -0.195,-0.437 -0.926,-1.769 -2.639,-3.987 -5.087,-5.785 -2.447,-1.79 -5.001,-2.897 -6.987,-3.231 -0.162,-0.035 -0.315,-0.056 -0.471,-0.079 -0.114,-0.11 -0.225,-0.22 -0.35,-0.333 -0.774,-0.623 -1.751,-1.305 -2.907,-1.905 -1.169,-0.559 -2.485,-1.15 -3.934,-1.508 -2.878,-0.827 -5.609,-0.906 -7.565,-0.624 -0.16,0.022 -0.308,0.052 -0.458,0.08 -0.144,-0.07 -0.283,-0.14 -0.438,-0.208 -0.918,-0.353 -2.035,-0.666 -3.294,-0.923 -1.258,-0.218 -2.653,-0.318 -4.119,-0.363 -1.466,0.045 -2.861,0.145 -4.118,0.364 -1.259,0.257 -2.376,0.57 -3.294,0.923 -0.155,0.068 -0.295,0.138 -0.438,0.208 -0.15,-0.028 -0.298,-0.058 -0.458,-0.08 -1.956,-0.283 -4.688,-0.203 -7.565,0.624 -1.448,0.358 -2.765,0.949 -3.934,1.508 -1.156,0.6 -2.133,1.282 -2.907,1.905 -0.125,0.113 -0.235,0.223 -0.35,0.333 -0.155,0.023 -0.309,0.044 -0.471,0.079 -1.986,0.333 -4.54,1.441 -6.987,3.231 -2.448,1.798 -4.161,4.016 -5.087,5.785 -0.072,0.151 -0.133,0.293 -0.195,0.437 -0.136,0.082 -0.271,0.16 -0.41,0.254 -1.702,1.078 -3.652,3.06 -5.2080004,5.628 -1.469,2.408 -2.2889996,4.854 -2.5799996,6.777 -0.234,0.534 -0.449,1.063 -0.656,1.59 -1.117,1.581 -2.194,3.876 -2.833,6.553 -0.695,2.885 -0.762,5.615 -0.388,7.589 0.24,1.314 0.666,2.273 1.163,2.772 4.2549996,7.132 23.547,12.52 46.716,12.52 23.168,0 42.46,-5.388 46.717,-12.521 0.497,-0.499 0.923,-1.458 1.163,-2.772 0.374,-1.974 0.308,-4.704 -0.388,-7.589 z m -49.918,5.163 c -0.237,1.031 -0.574,1.719 -0.574,1.719 0,0 -0.337,-0.688 -0.574,-1.719 -0.267,-1.031 -0.424,-2.406 -0.426,-3.781 0.004,-1.375 0.163,-2.75 0.429,-3.781 0.237,-1.031 0.571,-1.719 0.571,-1.719 0,0 0.334,0.688 0.571,1.719 0.266,1.031 0.425,2.406 0.429,3.781 -0.002,1.375 -0.159,2.75 -0.426,3.781 z m 6,0 c -0.237,1.031 -0.574,1.719 -0.574,1.719 0,0 -0.337,-0.688 -0.574,-1.719 -0.267,-1.031 -0.424,-2.406 -0.426,-3.781 0.004,-1.375 0.163,-2.75 0.429,-3.781 0.237,-1.031 0.571,-1.719 0.571,-1.719 0,0 0.334,0.688 0.571,1.719 0.266,1.031 0.425,2.406 0.429,3.781 -0.002,1.375 -0.159,2.75 -0.426,3.781 z m 37.219,-2.328 c -0.222,-0.763 -0.606,-1.855 -1.252,-3.178 -0.634,-1.325 -1.565,-2.852 -2.703,-4.536 -0.593,-0.828 -1.272,-1.674 -1.967,-2.571 -0.779,-0.834 -1.511,-1.778 -2.396,-2.652 -0.914,-0.846 -1.769,-1.819 -2.839,-2.628 -0.51,-0.428 -1.029,-0.863 -1.557,-1.305 -0.524,-0.443 -1.123,-0.81 -1.692,-1.227 -0.583,-0.397 -1.147,-0.838 -1.764,-1.214 -0.627,-0.359 -1.262,-0.723 -1.903,-1.091 -1.251,-0.787 -2.658,-1.348 -4.031,-2.017 -0.678,-0.356 -1.42,-0.583 -2.151,-0.842 -0.732,-0.257 -1.469,-0.516 -2.211,-0.777 -0.743,-0.254 -1.531,-0.384 -2.299,-0.585 -0.771,-0.196 -1.544,-0.394 -2.321,-0.592 -1.56,-0.226 -3.132,-0.453 -4.711,-0.682 -1.694,-0.073 -3.396,-0.147 -5.097,-0.221 -1.602,0.071 -3.204,0.142 -4.801,0.212 -1.609,0.23 -3.213,0.46 -4.805,0.688 -0.777,0.197 -1.551,0.393 -2.321,0.588 -0.769,0.201 -1.557,0.331 -2.3,0.585 -0.741,0.261 -1.479,0.52 -2.211,0.777 -0.731,0.259 -1.474,0.486 -2.151,0.843 -1.372,0.67 -2.782,1.227 -4.033,2.015 -0.642,0.368 -1.275,0.731 -1.902,1.091 -0.617,0.377 -1.181,0.818 -1.765,1.215 -0.568,0.417 -1.168,0.784 -1.692,1.228 -0.527,0.441 -1.047,0.876 -1.558,1.304 -1.07,0.809 -1.924,1.783 -2.838,2.629 -0.887,0.874 -1.616,1.819 -2.396,2.653 -0.694,0.896 -1.374,1.744 -1.966,2.572 -1.138,1.686 -2.069,3.211 -2.703,4.537 -0.6440004,1.331 -1.0290004,2.396 -1.2560004,3.17 -0.153,0.787 -0.235,1.207 -0.235,1.207 0,0 0.007,-0.427 0.021,-1.227 0.094,-0.786 0.261,-2.005 0.735,-3.44 0.19,-0.742 0.5500004,-1.496 0.8640004,-2.362 0.325,-0.86 0.819,-1.717 1.275,-2.68 0.507,-0.93 1.102,-1.89 1.716,-2.917 0.698,-0.963 1.396,-2.016 2.231,-3.027 0.87,-0.979 1.687,-2.097 2.731,-3.061 0.509,-0.497 1.026,-1.003 1.552,-1.517 0.529,-0.511 1.137,-0.948 1.717,-1.437 0.594,-0.469 1.172,-0.982 1.807,-1.433 0.647,-0.434 1.304,-0.873 1.966,-1.317 1.291,-0.958 2.801,-1.603 4.263,-2.396 0.725,-0.415 1.515,-0.698 2.298,-1.014 0.786,-0.312 1.577,-0.626 2.374,-0.943 1.62,-0.547 3.307,-0.964 4.994,-1.423 1.721,-0.275 3.456,-0.573 5.203,-0.819 1.792,-0.099 3.591,-0.197 5.39,-0.296 1.699,0.096 3.399,0.191 5.093,0.287 1.765,0.244 3.548,0.545 5.298,0.827 1.687,0.459 3.375,0.869 4.995,1.419 0.796,0.317 1.588,0.631 2.374,0.944 0.783,0.315 1.573,0.599 2.298,1.014 1.461,0.796 2.974,1.437 4.264,2.396 0.663,0.444 1.318,0.883 1.967,1.317 0.634,0.451 1.212,0.964 1.807,1.434 0.579,0.489 1.187,0.925 1.716,1.437 0.526,0.513 1.044,1.019 1.554,1.516 1.044,0.964 1.86,2.083 2.73,3.062 0.836,1.011 1.532,2.065 2.231,3.027 0.614,1.026 1.208,1.987 1.715,2.917 0.456,0.963 0.951,1.819 1.275,2.681 0.313,0.866 0.673,1.62 0.864,2.362 0.473,1.443 0.641,2.635 0.738,3.432 0.01,0.807 0.015,1.236 0.015,1.236 0,0 -0.086,-0.414 -0.244,-1.195 z"
       id="path6" /></g><g
     style="display:none"
     inkscape:label="pasty pi"
     id="g4144"
     inkscape:groupmode="layer"
     sodipodi:insensitive="true"
     transform="translate(-4.5484484,87.729822)"><path
       d="m 59.319579,16.151399 c -1.508365,0.04169 -2.944984,0.137774 -4.238729,0.353785 -1.295888,0.254031 -2.44475,0.565177 -3.390031,0.915918 -0.159627,0.06761 -0.305313,0.136292 -0.452599,0.205927 -0.154259,-0.02831 -0.305461,-0.05872 -0.470022,-0.08106 -2.011734,-0.28723 -4.822114,-0.212406 -7.783962,0.607672 -1.490569,0.35455 -2.848492,0.942068 -4.052482,1.498129 -1.190711,0.597066 -2.196677,1.275789 -2.994432,1.896699 -0.128858,0.112662 -0.241889,0.223331 -0.360461,0.333008 -0.159526,0.02261 -0.317701,0.04241 -0.484452,0.07702 -2.04402,0.328353 -4.675528,1.431416 -7.197204,3.214913 -2.522726,1.791489 -4.289138,4.004552 -5.24592,5.770474 -0.07441,0.150756 -0.137829,0.291083 -0.20195,0.434864 -0.140111,0.08165 -0.279344,0.159204 -0.422567,0.252837 -1.753556,1.073573 -3.763355,3.050987 -5.370143,5.614044 -1.516913,2.403344 -2.366284,4.846466 -2.670116,6.767727 -0.24198,0.533175 -0.464657,1.061235 -0.678841,1.587474 -1.152853,1.5776 -2.267215,3.86862 -2.930821,6.542675 -0.7216975,2.881817 -0.7956158,5.60902 -0.4153953,7.582745 0.2438833,1.313795 0.6790293,2.274648 1.1892033,2.77448 4.36118,7.137526 24.197694,12.565318 48.034599,12.617321 23.835875,0.052 43.696266,-5.290142 48.092466,-12.40956 0.51248,-0.497601 0.95206,-1.454593 1.20201,-2.767313 0.38934,-1.972046 0.32907,-4.701492 -0.38032,-7.586427 -0.6492,-2.66792 -1.74606,-4.957143 -2.88852,-6.53975 -0.21277,-0.531167 -0.44093,-1.066835 -0.68351,-1.606063 -0.29495,-1.922567 -1.13303,-4.36937 -2.63881,-6.779307 -1.59492,-2.570045 -3.595567,-4.554258 -5.344143,-5.635467 -0.142795,-0.09426 -0.281663,-0.172424 -0.421393,-0.254683 -0.06346,-0.144053 -0.126214,-0.286618 -0.199933,-0.437694 -0.948606,-1.770077 -2.70678,-3.990828 -5.221195,-5.793308 -2.513406,-1.794482 -5.137784,-2.906058 -7.180264,-3.244326 -0.166588,-0.03534 -0.323643,-0.05776 -0.484085,-0.08108 C 82.918526,21.872874 82.80498,21.763656 82.676633,21.650444 81.88176,21.026056 80.876934,20.342949 79.688995,19.740693 78.487587,19.179384 77.135438,18.584 75.645493,18.222951 c -2.959055,-0.832994 -5.768039,-0.917126 -7.781077,-0.639675 -0.164663,0.02164 -0.318012,0.05136 -0.472402,0.079 -0.147992,-0.07029 -0.290319,-0.141538 -0.449629,-0.209848 -0.943649,-0.354861 -2.091066,-0.669065 -3.385767,-0.928746 -1.293761,-0.2207 -2.728888,-0.324057 -4.237044,-0.372321 z m 0.08406,8.835084 c 1.747757,0.09975 3.497315,0.19863 5.239929,0.298379 1.815317,0.247823 3.649874,0.551828 5.449671,0.837598 1.734573,0.462528 3.469398,0.877005 5.134829,1.430331 0.818213,0.318606 1.63335,0.63357 2.441285,0.948156 0.804843,0.31658 1.615803,0.601863 2.360745,1.018256 1.501278,0.79883 3.056075,1.443346 4.381046,2.404702 0.681087,0.445237 1.353744,0.886819 2.020451,1.322028 0.651233,0.45217 1.24635,0.965775 1.857416,1.436845 0.594563,0.490024 1.217896,0.925687 1.760962,1.438585 0.539976,0.51389 1.072446,1.022348 1.596,1.520214 1.071867,0.965797 1.90929,2.084546 2.802109,3.064948 0.857768,1.012302 1.570845,2.067614 2.287775,3.030639 0.629329,1.026799 1.238068,1.989557 1.757535,2.920171 0.466919,0.963482 0.974617,1.818798 1.305965,2.681038 0.320033,0.866214 0.687933,1.621876 0.882713,2.363885 0.4833,1.443248 0.65368,2.634593 0.75164,3.431361 0.008,0.806567 0.0132,1.235667 0.0132,1.235667 0,0 -0.0877,-0.414274 -0.24842,-1.195189 -0.22664,-0.763065 -0.61914,-1.855045 -1.280707,-3.17875 -0.649216,-1.325676 -1.603655,-2.855013 -2.770568,-4.540617 -0.608157,-0.82886 -1.304574,-1.675219 -2.017531,-2.573276 -0.799529,-0.835276 -1.550951,-1.780729 -2.459442,-2.656224 -0.938393,-0.847573 -1.816662,-1.8209 -2.915638,-2.631846 -0.523712,-0.428901 -1.056297,-0.866461 -1.598495,-1.309397 -0.538084,-0.443925 -1.152893,-0.811624 -1.737333,-1.229665 -0.598888,-0.398084 -1.177795,-0.838993 -1.811714,-1.216165 -0.644243,-0.360203 -1.29804,-0.726224 -1.956669,-1.095456 -1.285244,-0.789362 -2.731765,-1.353782 -4.142798,-2.025487 -0.696722,-0.357321 -1.458963,-0.585653 -2.210437,-0.846147 -0.752507,-0.2585 -1.510088,-0.519351 -2.272876,-0.78187 -0.763833,-0.255523 -1.574074,-0.386202 -2.363749,-0.588813 -0.792773,-0.19762 -1.586893,-0.397038 -2.385834,-0.59667 -1.604449,-0.229375 -3.221178,-0.459413 -4.845166,-0.691828 -1.742667,-0.07676 -3.494234,-0.154247 -5.244099,-0.232023 -1.648346,0.06736 -3.296468,0.133668 -4.939664,0.200043 -1.655911,0.226291 -3.306361,0.452048 -4.944781,0.67633 -0.799856,0.195143 -1.597922,0.389186 -2.390571,0.582349 -0.791632,0.199163 -1.601445,0.328256 -2.366451,0.580443 -0.762965,0.259191 -1.522775,0.516733 -2.276469,0.771944 -0.752675,0.257214 -1.518996,0.481212 -2.216336,0.836491 -1.413099,0.666542 -2.865243,1.220687 -4.154128,2.005435 -0.661356,0.36635 -1.31179,0.728527 -1.957695,1.086915 -0.635658,0.375406 -1.21758,0.814731 -1.819333,1.210195 -0.58534,0.415485 -1.202867,0.779501 -1.742997,1.222074 -0.543211,0.439571 -1.07982,0.873839 -1.606542,1.30045 -1.102713,0.806145 -1.983472,1.777582 -2.925774,2.621055 -0.914589,0.871515 -1.667284,1.813688 -2.471697,2.645467 -0.716076,0.893937 -1.416449,1.7402 -2.027429,2.566405 -1.174701,1.682493 -2.136191,3.20465 -2.791532,4.52848 -0.66564,1.328804 -1.064055,2.392262 -1.299386,3.165314 -0.159232,0.786213 -0.245931,1.205821 -0.245931,1.205821 0,0 0.0086,-0.426307 0.02494,-1.225823 0.09853,-0.785346 0.272512,-2.002739 0.763493,-3.435863 0.197191,-0.741154 0.570584,-1.4952 0.895635,-2.360006 0.336356,-0.858786 0.84698,-1.71388 1.318349,-2.675314 0.523765,-0.928337 1.136944,-1.885477 1.771016,-2.91052 0.720347,-0.960889 1.440357,-2.012075 2.301764,-3.020627 0.897342,-0.976495 1.741939,-2.091574 2.818261,-3.052686 0.524824,-0.49558 1.056644,-1.000713 1.598994,-1.513244 0.545429,-0.509523 1.171759,-0.945411 1.769607,-1.432833 0.612231,-0.467373 1.209691,-0.977456 1.864042,-1.426773 0.666654,-0.432303 1.342422,-0.87094 2.024532,-1.313203 1.330432,-0.95456 2.886139,-1.59434 4.392115,-2.383611 0.746861,-0.413139 1.559133,-0.695832 2.365434,-1.009895 0.809382,-0.310062 1.624934,-0.620515 2.445642,-0.935546 1.667963,-0.543054 3.404708,-0.95686 5.1414,-1.411813 1.771247,-0.270988 3.557076,-0.564283 5.355009,-0.806223 1.843886,-0.09492 3.69361,-0.189707 5.544698,-0.284612 z m -2.189533,23.142422 c 0.109246,-0.0031 0.200399,0.06117 0.301202,0.09241 0.246526,-0.07761 0.302958,0.03125 0.423818,0.0751 0.268609,-0.05453 0.34923,0.06541 0.477802,0.19234 l 0.150714,-0.0036 c 0.404338,0.232669 0.604198,0.705336 0.674986,0.948213 0.07186,-0.242517 0.273876,-0.714308 0.679366,-0.945255 l 0.148688,0.0042 c 0.128997,-0.126362 0.212341,-0.245956 0.480698,-0.190249 0.121059,-0.04332 0.176143,-0.151948 0.422151,-0.07326 0.153797,-0.0469 0.289373,-0.170856 0.492346,-0.01455 0.171387,-0.06378 0.338005,-0.08496 0.486178,0.04596 0.229339,-0.02836 0.303167,0.03062 0.359456,0.100336 0.05044,-8.84e-4 0.377011,-0.05008 0.526089,0.167072 0.376277,-0.04243 0.493746,0.21719 0.358658,0.457538 0.07641,0.115663 0.156982,0.22923 -0.02315,0.448918 0.06325,0.122775 0.02247,0.256792 -0.127559,0.417456 0.0391,0.17245 -0.03826,0.293572 -0.177727,0.388066 0.02543,0.235964 -0.223975,0.372287 -0.298371,0.420989 -0.02883,0.137375 -0.08825,0.265779 -0.372522,0.336892 -0.04732,0.20475 -0.219022,0.241517 -0.384444,0.284175 0.545769,0.309854 1.014085,0.716066 1.008799,1.712183 l 0.08005,0.138772 c 0.625784,0.371543 1.187413,1.563329 0.30361,2.528543 -0.05827,0.302591 -0.156342,0.518358 -0.242886,0.758811 -0.130852,0.969412 -0.971495,1.42187 -1.192998,1.475087 -0.324946,0.239364 -0.670884,0.467554 -1.138791,0.626069 -0.441793,0.440639 -0.919864,0.60723 -1.399969,0.605978 -0.007,-1e-6 -0.01297,-9.9e-5 -0.02008,6e-6 -0.480107,-7.64e-4 -0.957424,-0.169534 -1.397155,-0.612081 -0.467185,-0.160563 -0.812026,-0.390284 -1.135882,-0.631037 -0.221256,-0.05418 -1.059798,-0.510301 -1.18614,-1.480296 -0.08543,-0.240825 -0.182492,-0.457016 -0.239375,-0.75986 -0.879346,-0.968986 -0.312175,-2.158383 0.315295,-2.527196 l 0.08069,-0.138417 c -8.74e-4,-0.996211 0.4675,-1.400377 1.014694,-1.707767 -0.165244,-0.04337 -0.334756,-0.07893 -0.381136,-0.283876 -0.283942,-0.07234 -0.342749,-0.202945 -0.370958,-0.340465 -0.07416,-0.04903 -0.323005,-0.186442 -0.296423,-0.422284 -0.139056,-0.09509 -0.215819,-0.216537 -0.175932,-0.388836 -0.14929,-0.161313 -0.189453,-0.295523 -0.125637,-0.418011 -0.179029,-0.220579 -0.09814,-0.333688 -0.02108,-0.449011 -0.134101,-0.240957 -0.01517,-0.500033 0.360743,-0.455988 0.150125,-0.216498 0.476507,-0.165883 0.526853,-0.164777 0.05662,-0.06947 0.130721,-0.128159 0.359918,-0.09877 0.148775,-0.130262 0.315294,-0.10836 0.486388,-0.04383 0.07002,-0.05343 0.131821,-0.07404 0.189066,-0.07572 z"
       id="path4146"
       style="fill:none;fill-opacity:1;stroke:#0099da;stroke-width:1.01402009;stroke-miterlimit:4;stroke-dasharray:none;stroke-opacity:1"
       inkscape:connector-curvature="0"
       inkscape:export-xdpi="180.73964"
       inkscape:export-ydpi="180.73964" /></g><g
     inkscape:groupmode="layer"
     id="g4143"
     inkscape:label="pasty pi larger"
     style="display:none"
     sodipodi:insensitive="true"
     transform="translate(-4.5484484,87.729822)"><path
       style="fill:#ffffff;fill-opacity:1;stroke:#0099da;stroke-width:1.01402009;stroke-miterlimit:4;stroke-dasharray:none;stroke-opacity:1"
       d="m 59.320312,16.150391 0,0.002 c -1.508364,0.04169 -2.946489,0.137504 -4.240234,0.353515 -1.295888,0.254031 -2.443391,0.565275 -3.388672,0.916016 -0.159627,0.06761 -0.305839,0.135443 -0.453125,0.205078 -0.154259,-0.02831 -0.306142,-0.05774 -0.470703,-0.08008 -2.011734,-0.28723 -4.821355,-0.212656 -7.783203,0.607422 -1.490569,0.35455 -2.848744,0.941986 -4.052734,1.498047 -1.190711,0.597066 -2.196386,1.275574 -2.994141,1.896484 -0.128858,0.112662 -0.242756,0.222354 -0.361328,0.332031 -0.159526,0.02261 -0.317624,0.04351 -0.484375,0.07813 -2.04402,0.328353 -4.67559,1.431347 -7.197266,3.214844 -2.522726,1.791489 -4.289312,4.003609 -5.246093,5.769531 -0.07441,0.150756 -0.137051,0.291766 -0.201172,0.435547 -0.140111,0.08165 -0.278652,0.15832 -0.421875,0.251953 -1.753556,1.073573 -3.764306,3.052178 -5.371094,5.615235 -1.516913,2.403344 -2.36609,4.846317 -2.669922,6.767578 -0.24198,0.533175 -0.46355,1.061652 -0.677734,1.58789 -1.152853,1.5776 -2.268035,3.866961 -2.931641,6.541016 -0.7216975,2.881817 -0.7962361,5.610259 -0.4160156,7.583984 0.2438836,1.313795 0.6792796,2.273606 1.1894536,2.773438 4.36118,7.137526 24.198251,12.565184 48.035156,12.617188 23.835875,0.052 43.695596,-5.288786 48.091796,-12.408204 0.51248,-0.497601 0.95318,-1.454858 1.20313,-2.767578 0.38934,-1.972046 0.32853,-4.701002 -0.38086,-7.585937 -0.6492,-2.66792 -1.74622,-4.958409 -2.88868,-6.541016 -0.21277,-0.531167 -0.44101,-1.066241 -0.68359,-1.605469 -0.29495,-1.922567 -1.13289,-4.369359 -2.63867,-6.779296 -1.59492,-2.570046 -3.595175,-4.553557 -5.343751,-5.634766 -0.142795,-0.09426 -0.282145,-0.173601 -0.421875,-0.25586 -0.06346,-0.144052 -0.1255,-0.286423 -0.199219,-0.4375 -0.948606,-1.770077 -2.708241,-3.990488 -5.222656,-5.792968 -2.513406,-1.794482 -5.137208,-2.905873 -7.179688,-3.244141 -0.166588,-0.03534 -0.323933,-0.05871 -0.484375,-0.08203 -0.117031,-0.110199 -0.231028,-0.218819 -0.359375,-0.332031 -0.794873,-0.624388 -1.798389,-1.307901 -2.986328,-1.910157 -1.201408,-0.561309 -2.554977,-1.156529 -4.044922,-1.517578 -2.959055,-0.832994 -5.766259,-0.916123 -7.779297,-0.638672 -0.164663,0.02164 -0.318266,0.05048 -0.472656,0.07813 -0.147992,-0.07029 -0.289909,-0.140674 -0.449219,-0.208984 C 65.99971,17.09832 64.851342,16.783174 63.556641,16.523494 62.26288,16.302793 60.828468,16.198711 59.320312,16.150447 Z m 0.08398,8.835937 c 1.747757,0.09975 3.49762,0.199079 5.240234,0.298828 1.815317,0.247823 3.649422,0.552121 5.449219,0.837891 1.734573,0.462528 3.469335,0.876361 5.134766,1.429687 0.818213,0.318606 1.633471,0.63268 2.441406,0.947266 0.804843,0.31658 1.614433,0.603138 2.359375,1.019531 1.501278,0.79883 3.057841,1.442941 4.382812,2.404297 0.681087,0.445237 1.352825,0.887057 2.019532,1.322266 0.651233,0.45217 1.246356,0.96643 1.857421,1.4375 0.594563,0.490024 1.218653,0.924602 1.761719,1.4375 0.539976,0.51389 1.072149,1.021665 1.595703,1.519531 1.071867,0.965797 1.907963,2.086004 2.800782,3.066406 0.857768,1.012302 1.572132,2.066272 2.289062,3.029297 0.629329,1.026799 1.238346,1.991261 1.757813,2.921875 0.466919,0.963482 0.973339,1.817448 1.304687,2.679688 0.320027,0.866214 0.688037,1.623225 0.882817,2.365234 0.4833,1.443248 0.65398,2.632919 0.75194,3.429687 0.008,0.806568 0.0137,1.236329 0.0137,1.236329 0,0 -0.0873,-0.414398 -0.24805,-1.195313 -0.22664,-0.763065 -0.61968,-1.854029 -1.281246,-3.177734 -0.649216,-1.325676 -1.604572,-2.855412 -2.771485,-4.541016 -0.608157,-0.82886 -1.304621,-1.676162 -2.017578,-2.574219 -0.799529,-0.835276 -1.550493,-1.780755 -2.458984,-2.65625 -0.938393,-0.847573 -1.81704,-1.819913 -2.916016,-2.630859 -0.523712,-0.428901 -1.055458,-0.867611 -1.597656,-1.310547 -0.538084,-0.443925 -1.153841,-0.810475 -1.738281,-1.228515 -0.598888,-0.398084 -1.176628,-0.839625 -1.810547,-1.216797 -0.644243,-0.360203 -1.298402,-0.726472 -1.957031,-1.095703 -1.285244,-0.789362 -2.731545,-1.353686 -4.142579,-2.025391 -0.696721,-0.357321 -1.459463,-0.585209 -2.210937,-0.845703 -0.752507,-0.2585 -1.510649,-0.518731 -2.273437,-0.78125 C 73.259604,30.834321 72.449831,30.702611 71.660156,30.5 c -0.792773,-0.19762 -1.585824,-0.396071 -2.384765,-0.595703 -1.604449,-0.229375 -3.221715,-0.460945 -4.845703,-0.693359 -1.742667,-0.07676 -3.494276,-0.152693 -5.244141,-0.230469 -1.648346,0.06736 -3.296257,0.132844 -4.939453,0.199219 -1.655911,0.22629 -3.306893,0.451499 -4.945313,0.675781 -0.799856,0.195143 -1.597976,0.390821 -2.390625,0.583984 -0.791632,0.199163 -1.600228,0.327891 -2.365234,0.580078 -0.762965,0.259191 -1.52365,0.516274 -2.277344,0.771485 -0.752675,0.257214 -1.519457,0.480658 -2.216797,0.835937 -1.413099,0.666542 -2.865412,1.221112 -4.154297,2.005859 -0.661356,0.36635 -1.311126,0.729503 -1.957031,1.087891 -0.635658,0.375406 -1.218559,0.81352 -1.820312,1.208985 -0.58534,0.415484 -1.202058,0.780083 -1.742188,1.222656 -0.543211,0.439571 -1.0807,0.87417 -1.607422,1.300781 -1.102713,0.806145 -1.983479,1.777621 -2.925781,2.621094 -0.914589,0.871515 -1.66629,1.812752 -2.470703,2.644531 -0.716076,0.893937 -1.416364,1.740201 -2.027344,2.566406 -1.174701,1.682493 -2.135674,3.205467 -2.791015,4.529297 -0.66564,1.328804 -1.065451,2.391011 -1.300782,3.164063 -0.159232,0.786213 -0.246094,1.207031 -0.246094,1.207031 0,0 0.0091,-0.427047 0.02539,-1.226563 0.09853,-0.785346 0.272691,-2.002422 0.763672,-3.435546 0.197191,-0.741155 0.571433,-1.49457 0.896484,-2.359376 0.336356,-0.858786 0.846991,-1.714347 1.31836,-2.675781 0.523765,-0.928337 1.135459,-1.885113 1.769531,-2.910156 0.720347,-0.960889 1.441327,-2.012932 2.302734,-3.021484 0.897342,-0.976495 1.742038,-2.091623 2.81836,-3.052735 0.524824,-0.49558 1.057259,-1.001141 1.599609,-1.513672 0.545429,-0.509523 1.171683,-0.944218 1.769531,-1.43164 0.612231,-0.467373 1.208931,-0.978418 1.863282,-1.427735 0.666654,-0.432303 1.34328,-0.870237 2.02539,-1.3125 1.330432,-0.95456 2.884649,-1.593541 4.390625,-2.382812 0.746861,-0.413139 1.558934,-0.697656 2.365235,-1.011719 0.809382,-0.310062 1.626557,-0.620516 2.447265,-0.935547 1.667963,-0.543054 3.403933,-0.955203 5.140625,-1.410156 1.771247,-0.270988 3.557536,-0.564701 5.355469,-0.806641 1.843886,-0.09492 3.693844,-0.190252 5.544922,-0.285156 z m 3.455078,18.666016 c 0.07709,0.01695 0.158011,0.05446 0.248047,0.125 0.302061,-0.117666 0.596319,-0.15842 0.859375,0.07813 0.404745,-0.0539 0.536585,0.05349 0.636719,0.179687 0.08908,-0.0021 0.664155,-0.09253 0.929687,0.300782 0.664149,-0.08085 0.874841,0.387806 0.638672,0.826171 0.136163,0.209521 0.278781,0.41519 -0.03711,0.816407 0.112984,0.222586 0.04457,0.464213 -0.21875,0.757812 0.07082,0.313155 -0.06714,0.535793 -0.3125,0.708984 0.04749,0.4288 -0.390529,0.680362 -0.521485,0.769532 -0.04952,0.250028 -0.152947,0.48507 -0.654297,0.617187 -0.08148,0.372737 -0.384014,0.438418 -0.675781,0.517578 0.967005,0.557976 1.797941,1.292389 1.798828,3.103516 l 0.142578,0.251953 c 1.109066,0.669277 2.111609,2.830049 0.560547,4.59375 -0.09983,0.550732 -0.269533,0.946726 -0.419922,1.384766 -0.22116,1.76382 -1.699166,2.594409 -2.089843,2.693359 -0.571521,0.438346 -1.181086,0.853605 -2.00586,1.146485 -0.775763,0.80555 -1.618825,1.114687 -2.466797,1.117187 -0.01247,2.29e-4 -0.02457,-2.27e-4 -0.03711,0 -0.847969,0.0034 -1.691464,-0.299379 -2.472656,-1.099609 C 55.934924,62.253759 55.322505,61.842699 54.74804,61.408208 54.356705,61.311898 52.871812,60.490799 52.638665,58.728521 52.48531,58.29151 52.31256,57.895747 52.208984,57.345703 50.645951,55.592722 51.633822,53.426791 52.738281,52.75 l 0.140625,-0.251953 c -0.01177,-1.811235 0.814072,-2.552811 1.777344,-3.117188 -0.292299,-0.07718 -0.593714,-0.141525 -0.677734,-0.513671 -0.502238,-0.128692 -0.608917,-0.363539 -0.660157,-0.613282 -0.131489,-0.08841 -0.571873,-0.336565 -0.527343,-0.765625 -0.246564,-0.171504 -0.383134,-0.391416 -0.314454,-0.705078 -0.265332,-0.291798 -0.336073,-0.534474 -0.224609,-0.757812 -0.318504,-0.399227 -0.177905,-0.605964 -0.04297,-0.816407 -0.239317,-0.436746 -0.03159,-0.906418 0.632813,-0.830078 0.262928,-0.395117 0.838804,-0.30814 0.927734,-0.30664 0.09927,-0.126864 0.231607,-0.234754 0.636719,-0.183594 0.261426,-0.238311 0.554576,-0.199599 0.857422,-0.08398 0.12313,-0.09784 0.23095,-0.135072 0.332031,-0.138672 0.192922,-0.0067 0.356792,0.110235 0.535156,0.166015 0.434616,-0.143568 0.534145,0.05039 0.748047,0.128907 0.473867,-0.101821 0.619296,0.116219 0.847656,0.345703 l 0.265626,-0.0078 c 0.71652,0.418992 1.073649,1.275924 1.201171,1.716797 0.12445,-0.441644 0.475696,-1.300599 1.189453,-1.724609 l 0.265626,0.0039 c 0.226537,-0.231026 0.36921,-0.448209 0.84375,-0.34961 0.213373,-0.07997 0.31274,-0.275387 0.748046,-0.134765 0.203367,-0.06511 0.38787,-0.209047 0.619141,-0.158203 z"
       id="path4145"
       inkscape:connector-curvature="0" /></g><g
     style="display:inline"
     inkscape:label="pasty pi larger tmp rotated"
     id="g4163"
     inkscape:groupmode="layer"
     transform="translate(-4.5484484,87.729822)"><path
       id="path4165"
       d="m 128.15904,-47.703558 -0.002,0.0029 c -2.30203,-1.245575 -4.54549,-2.348925 -6.6763,-3.146496 -2.16701,-0.742313 -4.16074,-1.26999 -5.88494,-1.562945 -0.29843,-0.03688 -0.5769,-0.06179 -0.85855,-0.08492 -0.20717,-0.176318 -0.40981,-0.352252 -0.63763,-0.528534 -2.77293,-2.176253 -7.05823,-4.501005 -12.21878,-5.837886 -2.546646,-0.76016 -5.096385,-1.055654 -7.387293,-1.264556 -2.306526,-0.135788 -4.405724,0.01131 -6.142629,0.252095 -0.291283,0.05748 -0.557516,0.123482 -0.830759,0.185398 -0.259248,-0.104392 -0.514876,-0.210106 -0.795386,-0.302736 -3.355316,-1.279523 -8.265098,-1.904958 -13.599994,-1.412825 -5.343406,0.503228 -9.915745,2.294127 -12.884608,4.117089 -0.242531,0.161923 -0.458926,0.319428 -0.679951,0.479805 -0.281288,0.0012 -0.555902,-0.0037 -0.852259,0.01261 -3.565307,0.09186 -8.301907,1.320221 -12.938565,3.77689 -4.363129,2.2947 -7.757552,5.228055 -9.880276,7.850669 -0.825924,0.591069 -1.617114,1.192781 -2.395269,1.797538 -3.100071,1.37001 -6.760859,3.841903 -10.076936,7.283334 -3.58331,3.703184 -6.061655,7.737216 -7.202294,11.031919 -0.773089,2.185108 -0.951477,4.004559 -0.618595,5.197881 0.361163,14.5044834 25.453099,39.862589 61.215902,60.614412 35.761262,20.750924 70.226672,29.952271 83.005312,23.070265 1.20142,-0.303025 2.69367,-1.358803 4.20767,-3.113996 2.29522,-2.624741 4.57069,-6.776931 6.00714,-11.725947 1.33864,-4.570809 1.67724,-8.963036 1.33361,-12.331289 0.14108,-0.982456 0.26227,-1.984199 0.36553,-3.00462 1.22437,-3.143897 2.08769,-7.546223 1.91586,-12.472401 -0.16687,-5.244005 -1.45141,-9.958462 -3.14039,-13.0991936 -0.13273,-0.265445 -0.27328,-0.505489 -0.41184,-0.750246 0.0296,-0.271435 0.0599,-0.539112 0.0802,-0.829997 0.11018,-3.48174 -0.60738,-8.343381 -2.82127,-13.231821 -2.21929,-4.8755514 -5.19687,-8.8207074 -7.97171,-11.1002954 -0.2196,-0.197568 -0.4357,-0.36914 -0.65649,-0.543323 -0.0802,-0.267043 -0.15727,-0.529081 -0.25189,-0.810464 -0.65253,-1.62735 -1.5672,-3.524474 -2.8294,-5.459482 -1.31793,-1.885181 -2.83504,-3.95327 -4.7601,-5.787865 -3.72265,-3.817711 -7.86755,-6.377271 -11.13218,-7.706386 -0.26612,-0.110309 -0.52188,-0.200194 -0.77778,-0.292576 -0.16134,-0.233943 -0.3135,-0.462759 -0.49357,-0.703543 -1.10978,-1.351499 -2.56154,-2.820889 -4.28122,-4.333873 -1.75209,-1.453614 -3.81659,-2.854029 -6.0403,-4.234553 z m -7.53723,13.346223 c 2.53898,1.665671 5.08148,3.332537 7.61273,4.993747 2.51204,1.946702 5.00332,3.994535 7.45914,5.984779 2.20453,2.199204 4.45158,4.325422 6.4735,6.601056 0.9528,1.188246 1.90509,2.367121 2.84593,3.540414 0.93447,1.173607 1.90211,2.30623 2.66003,3.5778254 1.5624,2.502061 3.34204,4.819651 4.49863,7.41295 0.63698,1.25954399 1.26288,2.50584399 1.88695,3.737852 0.58613,1.244064 1.03411,2.532737 1.54349,3.770356 0.46816,1.251777 1.02876,2.445877 1.39972,3.687355 0.36546,1.2402856 0.7245,2.4646196 1.07919,3.6665946 0.77252,2.380452 1.05696,4.788377 1.54786,7.03548 0.41057,2.264627 0.56959,4.467472 0.81133,6.535924 0.0548,2.088278 0.13323,4.065297 0.10646,5.913801 -0.13422,1.852306 -0.11413,3.574353 -0.36419,5.156993 -0.2705,1.578791 -0.37425,3.035143 -0.72519,4.318725 -0.52571,2.587219 -1.30111,4.522388 -1.84498,5.804255 -0.68752,1.218568 -1.05172,1.869083 -1.05172,1.869083 0,0 0.22822,-0.69825 0.66408,-2.010737 0.32134,-1.342844 0.67711,-3.322577 0.83134,-5.884831 0.17449,-2.554501 0.0661,-5.681055 -0.22493,-9.225239 -0.1947,-1.77257 -0.50607,-3.649432 -0.79819,-5.616844 -0.47662,-1.948187 -0.78471,-4.019798 -1.39014,-6.122904 -0.67456,-2.087094 -1.15116,-4.309797 -2.09871,-6.481144 -0.41474,-1.09851 -0.83304,-2.218725 -1.26338,-3.354354 -0.4233,-1.1335426 -1.03037,-2.2182216 -1.54576,-3.3530856 -0.5544,-1.117418 -1.03933,-2.281777 -1.66449,-3.398163 -0.65537,-1.099848 -1.32039,-2.21741 -1.98956,-3.34329901 -1.24608,-2.30047199 -2.92928,-4.40257499 -4.46638,-6.63540199 -0.73671,-1.141034 -1.68486,-2.144893 -2.5878,-3.187959 -0.90622,-1.0409684 -1.81941,-2.0894244 -2.73759,-3.1453464 -0.92582,-1.04632 -2.02803,-1.946488 -3.03856,-2.935735 -1.01951,-0.984435 -2.03872,-1.970363 -3.06575,-2.963169 -2.21128,-1.736106 -4.4399,-3.486622 -6.67789,-5.244237 -2.55127,-1.626723 -5.11669,-3.259957 -7.67789,-4.894445 -2.53457,-1.32842 -5.06686,-2.659279 -7.59285,-3.984712 -2.68377,-1.096233 -5.35921,-2.189818 -8.01497,-3.273899 -1.370799,-0.400568 -2.739447,-0.798829 -4.097698,-1.19612 -1.361927,-0.387398 -2.688247,-0.895316 -4.056167,-1.179969 -1.370923,-0.272361 -2.736594,-0.545909 -4.090142,-0.816207 -1.353751,-0.266405 -2.699408,-0.595777 -4.055089,-0.666876 -2.700853,-0.224295 -5.3635,-0.650807 -7.98028,-0.589804 -1.311227,-0.02327 -2.602275,-0.04129 -3.883387,-0.06308 -1.280476,0.01261 -2.536089,0.165221 -3.78303,0.237391 -1.23965,0.116486 -2.482301,0.129299 -3.67753,0.325681 -1.197254,0.1892 -2.381599,0.375893 -3.542841,0.559926 -2.355669,0.254613 -4.52132,0.950081 -6.668392,1.399894 -2.129762,0.515971 -4.075304,1.277955 -6.005098,1.82979 -1.851002,0.721824 -3.636941,1.385727 -5.271324,2.096956 -3.223862,1.508631 -5.988313,2.963 -8.120925,4.383288 -2.152397,1.418826 -3.674245,2.66772 -4.698226,3.624904 -0.921081,1.042949 -1.41654,1.599769 -1.41654,1.599769 0,0 0.383975,-0.633662 1.101938,-1.820527 0.829142,-1.094296 2.146335,-2.771542 4.126835,-4.498562 0.939024,-0.942343 2.154646,-1.749546 3.392984,-2.766746 1.2501,-0.998349 2.759204,-1.840704 4.301145,-2.876157 1.591948,-0.940293 3.340647,-1.847045 5.182172,-2.836939 1.915485,-0.818696 3.910979,-1.773775 6.079704,-2.541729 2.194902,-0.688633 4.430957,-1.631179 6.881383,-2.141477 1.218209,-0.289281 2.456509,-0.586957 3.715746,-0.886504 1.261254,-0.292359 2.579025,-0.402212 3.899856,-0.615907 1.325046,-0.1711 2.66464,-0.421279 4.037302,-0.528727 1.376386,-0.07123 2.772635,-0.14226 4.180878,-0.215027 2.826468,-0.280064 5.715407,0.10803 8.662225,0.228509 1.480251,0.02714 2.946914,0.304039 4.430528,0.531555 1.484774,0.236201 2.981593,0.47857 4.48769,0.717127 2.976611,0.630842 5.941853,1.517315 8.945293,2.340112 2.8958,1.129119 5.83392,2.237146 8.74461,3.433049 2.85222,1.456609 5.71391,2.917866 8.57692,4.380736 z m -10.99876,31.0367544 c 0.10111,0.09232 0.19012,0.218855 0.2642,0.402906 0.55581,0.08522 1.03319,0.279208 1.2232,0.862694 0.65475,0.270072 0.75966,0.545732 0.80064,0.822151 0.13567,0.07404 1.07795,0.43701899 1.13571,1.25815299 1.06781,0.454566 0.97784,1.34131301 0.24288,1.79499701 0.0228,0.432837 0.0587,0.865486 -0.76382,1.194225 -0.0234,0.43236 -0.33564,0.736004 -0.98585,0.948667 -0.1652,0.531847 -0.56556,0.746638 -1.08434,0.794009 -0.30056,0.685335 -1.17673,0.683337 -1.45079,0.703711 -0.29124,0.332642 -0.65046,0.596025 -1.51818,0.35967 -0.44567,0.489264 -0.9571,0.32554 -1.46405,0.191405 0.9687,1.676876 1.57999,3.500783 0.0107,6.2222356 l -0.004,0.502142 c 1.08558,1.967282 0.71757,6.082707 -3.14209,7.386914 -0.62763,0.740724 -1.22599,1.18841 -1.83182,1.716002 -1.861985,2.457807 -4.802621,2.42365 -5.475315,2.23346 -1.238719,0.162808 -2.514563,0.257937 -4.007556,-0.01741 -1.864008,0.537284 -3.398571,0.270484 -4.674569,-0.461205 -0.01892,-0.01049 -0.0367,-0.02164 -0.05574,-0.03218 C 85.565501,22.831609 84.560986,21.645233 84.081514,19.765598 83.08865,18.617 82.525184,17.468353 82.039053,16.317427 81.534715,15.833349 80.016241,13.312042 81.194429,10.462533 81.343063,9.6730514 81.4268,8.9287084 81.74826,8.0125984 c -0.827639,-3.988952 2.534853,-6.385844 4.780957,-6.444628 l 0.429764,-0.256522 c 1.553207,-2.731048 3.436952,-3.1288 5.373467,-3.141166 -0.372153,-0.369454 -0.769136,-0.727526 -0.572589,-1.359435 -0.642851,-0.628911 -0.599421,-1.074222 -0.459794,-1.493829 -0.120845,-0.246843 -0.567168,-1.001572 -0.128152,-1.607488 -0.221644,-0.471479 -0.236072,-0.920278 0.13913,-1.331897 -0.14552,-0.668462 -0.04129,-1.094365 0.319842,-1.333192 -0.132216,-0.875957 0.258301,-1.0645774 0.643519,-1.2636764 0.01929,-0.863642 0.738677,-1.389024 1.670538,-0.698109 0.737658,-0.365511 1.527307,0.264604 1.659596,0.343986 0.259159,-0.104475 0.551523,-0.151781 1.115714,0.276429 0.599402,-0.131266 1.006198,0.181143 1.360863,0.6174804 0.26982,-0.04019 0.46408,-0.0026 0.619047,0.07965 0.295578,0.157335 0.440368,0.47504 0.659929,0.713528 0.777399,0.161268 0.758689,0.538955 1.011919,0.842424 0.80016,0.258028 0.82951,0.711701 0.97353,1.254488 l 0.40579,0.218641 c 0.71297,1.250847 0.50624,2.847872 0.31543,3.620752 0.56999,-0.555504 1.8426,-1.541194 3.28256,-1.559105 l 0.39563,0.236246 c 0.54068,-0.150584 0.94336,-0.353088 1.57071,0.206597 0.38988,0.06492 0.70863,-0.14244 1.24059,0.446333 0.36197,0.07855 0.76397,0.02238 1.06729,0.299327 z"
       style="fill:#0099da;fill-opacity:1;stroke:none;stroke-width:1.75891542;stroke-miterlimit:4;stroke-dasharray:none;stroke-opacity:1"
       inkscape:connector-curvature="0" /></g><g
     inkscape:groupmode="layer"
     id="layer2"
     inkscape:label="pi"
     style="display:none"
     sodipodi:insensitive="true"
     transform="translate(-4.5484484,87.729822)"><path
       inkscape:connector-curvature="0"
       style="fill:#000000;stroke:#000000;stroke-opacity:1"
       d="m 57.249742,48.141432 c -0.05563,0.0018 -0.115528,0.02227 -0.183473,0.07588 -0.166443,-0.06419 -0.327814,-0.08648 -0.472125,0.04418 -0.222843,-0.02891 -0.295263,0.03074 -0.350129,0.100376 -0.04894,-10e-4 -0.366068,-0.05029 -0.511499,0.166657 -0.365487,-0.04325 -0.480996,0.214977 -0.350113,0.455774 -0.07465,0.115557 -0.151988,0.229716 0.02254,0.450011 -0.06176,0.122695 -0.02348,0.255796 0.121987,0.416873 -0.03838,0.172483 0.03705,0.294173 0.172421,0.389012 -0.02531,0.236033 0.216455,0.37326 0.288643,0.422161 0.02773,0.137532 0.08549,0.267309 0.361637,0.339068 0.04554,0.204953 0.211502,0.240347 0.372212,0.283367 -0.53117,0.308756 -0.986683,0.714994 -0.983595,1.711762 l -0.0778,0.138794 c -0.60906,0.370387 -1.157028,1.560845 -0.300151,2.528456 0.05597,0.302889 0.149841,0.520448 0.23342,0.761225 0.125007,0.97024 0.940841,1.424555 1.156017,1.478287 0.315323,0.240179 0.651139,0.468083 1.105593,0.627713 0.428403,0.441838 0.892521,0.61023 1.359175,0.609953 0.0069,-5e-6 0.01381,6.9e-5 0.02068,0 0.466654,2.03e-4 0.930757,-0.1681 1.359176,-0.609953 0.454433,-0.15963 0.790269,-0.387534 1.105592,-0.627713 0.215176,-0.05373 1.031006,-0.508047 1.156012,-1.478287 0.08358,-0.240777 0.17745,-0.458336 0.23342,-0.761225 0.856868,-0.967685 0.308914,-2.158222 -0.300166,-2.528608 l -0.07792,-0.138781 c 0.0029,-0.996688 -0.452425,-1.402926 -0.983595,-1.711761 0.16071,-0.04302 0.326675,-0.0784 0.372211,-0.283368 0.276145,-0.07177 0.333932,-0.201545 0.361644,-0.339062 0.0722,-0.04889 0.31395,-0.186131 0.288636,-0.422161 0.135346,-0.09485 0.210811,-0.216546 0.172423,-0.389012 0.14546,-0.16108 0.183745,-0.294173 0.121986,-0.416876 0.174588,-0.220204 0.09713,-0.334362 0.02259,-0.449918 0.130788,-0.240796 0.01539,-0.499022 -0.350252,-0.455774 -0.145386,-0.216944 -0.46244,-0.167672 -0.511465,-0.166658 -0.05487,-0.06963 -0.127255,-0.129281 -0.350099,-0.100375 -0.144316,-0.130668 -0.305682,-0.108371 -0.472129,-0.04418 -0.197638,-0.155961 -0.328426,-0.03094 -0.477809,0.01633 -0.239291,-0.0782 -0.294004,0.02891 -0.411576,0.07252 -0.26096,-0.05515 -0.340261,0.06492 -0.465361,0.191631 l -0.145525,-0.0029 c -0.393607,0.231961 -0.589143,0.704286 -0.658455,0.947095 -0.06935,-0.242857 -0.264433,-0.715181 -0.657962,-0.947095 l -0.145524,0.0029 c -0.125252,-0.12671 -0.204555,-0.24677 -0.465514,-0.191627 -0.117571,-0.04361 -0.172131,-0.150713 -0.411571,-0.07252 -0.09805,-0.03103 -0.188224,-0.09551 -0.294404,-0.09221 z"
       id="path4228" /></g><g
     style="display:none"
     inkscape:label="larger"
     id="g4141"
     inkscape:groupmode="layer"
     sodipodi:insensitive="true"
     transform="translate(-4.5484484,87.729822)"><path
       id="path4143"
       d="m 55.596262,43.665572 c -0.101081,0.0036 -0.209794,0.04118 -0.332924,0.139019 -0.302846,-0.115614 -0.596214,-0.155121 -0.85764,0.08319 -0.405112,-0.05116 -0.53634,0.05769 -0.635613,0.184554 -0.08893,-0.0015 -0.665502,-0.08912 -0.92843,0.305997 -0.664405,-0.07634 -0.872702,0.393615 -0.633385,0.830361 -0.134936,0.210443 -0.274764,0.418363 0.04374,0.81759 -0.111464,0.223338 -0.04109,0.464959 0.224243,0.756757 -0.06868,0.313662 0.06914,0.534321 0.315704,0.705825 -0.04453,0.42906 0.395618,0.676935 0.527107,0.765341 0.05124,0.249743 0.156995,0.485207 0.659233,0.613898 0.08402,0.372146 0.385811,0.435433 0.67811,0.512615 -0.963272,0.564377 -1.788516,1.30533 -1.77675,3.116565 l -0.140514,0.252688 c -1.104459,0.676791 -2.092831,2.843403 -0.529798,4.596384 0.103576,0.550044 0.275494,0.944796 0.428856,1.381802 0.233147,1.762278 1.718428,2.582789 2.109763,2.679097 0.574465,0.434491 1.186093,0.846546 2.012881,1.133808 0.781192,0.80023 1.625594,1.103354 2.473563,1.099969 0.01254,-2.27e-4 0.02511,10e-5 0.03758,-1.29e-4 0.847972,-0.0025 1.690268,-0.311209 2.466031,-1.116759 0.824774,-0.29288 1.433625,-0.709084 2.005146,-1.14743 0.390677,-0.09895 1.870333,-0.929556 2.091493,-2.693376 0.150389,-0.43804 0.319618,-0.833953 0.419453,-1.384685 1.551062,-1.763701 0.548008,-3.923676 -0.561058,-4.592953 l -0.142485,-0.251681 c -8.87e-4,-1.811127 -0.83078,-2.546502 -1.797785,-3.104478 0.291767,-0.07916 0.593127,-0.144481 0.674604,-0.517218 0.50135,-0.132117 0.605535,-0.368325 0.655059,-0.618353 0.130956,-0.08917 0.569372,-0.340102 0.521881,-0.768902 0.245357,-0.173191 0.381732,-0.394797 0.310912,-0.707952 0.263325,-0.293599 0.332074,-0.535684 0.21909,-0.75827 0.31589,-0.401217 0.174433,-0.608178 0.03827,-0.817699 0.236169,-0.438365 0.02488,-0.906882 -0.639269,-0.826036 -0.265532,-0.393314 -0.841349,-0.301826 -0.930427,-0.299681 -0.100134,-0.126197 -0.23205,-0.234127 -0.636795,-0.180231 -0.263056,-0.236545 -0.556132,-0.195036 -0.858193,-0.07737 -0.360144,-0.282154 -0.597031,-0.05417 -0.868186,0.03265 -0.435306,-0.140622 -0.534065,0.05435 -0.747438,0.134319 -0.47454,-0.0986 -0.617898,0.120071 -0.844435,0.351097 l -0.264452,-0.0044 c -0.713757,0.42401 -1.066199,1.283417 -1.190649,1.725061 -0.127522,-0.440873 -0.484927,-1.297944 -1.201447,-1.716936 l -0.264415,0.0062 c -0.228361,-0.229484 -0.373191,-0.447168 -0.847058,-0.345347 -0.213902,-0.07852 -0.313711,-0.272805 -0.748327,-0.129237 -0.178364,-0.05578 -0.342616,-0.172391 -0.535538,-0.165739 z"
       style="fill:#000000"
       inkscape:connector-curvature="0" /></g></svg>